<svg width="18" height="18" viewBox="0 0 18 18" fill="none" xmlns="http://www.w3.org/2000/svg">
<path d="M8.99997 6.67862C7.71788 6.67862 6.67854 7.71796 6.67854 9.00005C6.67854 10.2821 7.71788 11.3215 8.99997 11.3215C10.2821 11.3215 11.3214 10.2821 11.3214 9.00005C11.3214 7.71796 10.2821 6.67862 8.99997 6.67862Z" fill="#29CDB5"/>
<path fill-rule="evenodd" clip-rule="evenodd" d="M5.26393 2.62967C7.72687 2.3544 10.2731 2.3544 12.736 2.62967C14.092 2.78122 15.1857 3.84964 15.3449 5.21039C15.6394 7.72825 15.6394 10.2719 15.3449 12.7897C15.1857 14.1505 14.092 15.2189 12.736 15.3704C10.2731 15.6457 7.72687 15.6457 5.26393 15.3704C3.90793 15.2189 2.81422 14.1505 2.65507 12.7897C2.36058 10.2719 2.36058 7.72825 2.65507 5.21039C2.81422 3.84964 3.90793 2.78122 5.26393 2.62967ZM12.5714 4.71434C12.1769 4.71434 11.8571 5.03413 11.8571 5.42862C11.8571 5.82311 12.1769 6.14291 12.5714 6.14291C12.9659 6.14291 13.2857 5.82311 13.2857 5.42862C13.2857 5.03413 12.9659 4.71434 12.5714 4.71434ZM5.60712 9.00005C5.60712 7.12623 7.12615 5.60719 8.99997 5.60719C10.8738 5.60719 12.3928 7.12623 12.3928 9.00005C12.3928 10.8739 10.8738 12.3929 8.99997 12.3929C7.12615 12.3929 5.60712 10.8739 5.60712 9.00005Z" fill="#29CDB5"/>
</svg>
