<svg width="16" height="12" viewBox="0 0 16 12" fill="none" xmlns="http://www.w3.org/2000/svg">
<path fill-rule="evenodd" clip-rule="evenodd" d="M4.42064 0.921786C6.80326 0.735381 9.1968 0.735381 11.5794 0.921786L13.1799 1.047C14.0714 1.11675 14.8007 1.78489 14.9481 2.66687C15.3168 4.87365 15.3168 7.12632 14.9481 9.33311C14.8007 10.2151 14.0714 10.8832 13.1799 10.953L11.5794 11.0782C9.1968 11.2646 6.80326 11.2646 4.42064 11.0782L2.82014 10.953C1.92866 10.8832 1.19936 10.2151 1.05199 9.33311C0.683272 7.12632 0.683272 4.87365 1.05199 2.66687C1.19936 1.78489 1.92866 1.11675 2.82014 1.047L4.42064 0.921786ZM6.57144 7.76437V4.2356C6.57144 4.06904 6.75315 3.96615 6.89597 4.05185L9.83662 5.81624C9.97533 5.89947 9.97533 6.10051 9.83662 6.18374L6.89597 7.94812C6.75315 8.03382 6.57144 7.93094 6.57144 7.76437Z" fill="#29CDB5"/>
</svg>
